<svg width="29" height="24" viewBox="0 0 29 24" fill="none" xmlns="http://www.w3.org/2000/svg">
<path d="M7.76786 0C6.36533 0 5.07068 0.342412 3.88393 1.02724C2.69717 1.69131 1.74777 2.59403 1.03571 3.73541C0.345238 4.87678 0 6.12192 0 7.47082C0 8.61219 0.431548 9.79507 1.29464 11.0195C1.70461 11.6213 2.12537 12.1089 2.55692 12.4825L14.5 24L26.8315 12.1089C27.1551 11.7769 27.4572 11.4241 27.7377 11.0506C28.1045 10.5318 28.3958 10.0026 28.6116 9.46303C28.8705 8.77821 29 8.11414 29 7.47082C29 6.12192 28.644 4.87678 27.9319 3.73541C27.2414 2.59403 26.3028 1.69131 25.1161 1.02724C23.9293 0.342412 22.6347 0 21.2321 0C18.7292 0 16.4851 0.975357 14.5 2.92607C12.5149 0.975357 10.2708 0 7.76786 0ZM7.76786 1.99222C8.47991 1.99222 9.22433 2.14786 10.0011 2.45914C10.6269 2.68742 11.2634 3.00908 11.9107 3.42412C12.3638 3.73541 12.8062 4.06744 13.2377 4.42023L13.7232 4.88716L14.5 5.72763L15.2768 4.88716L15.7623 4.42023C16.1938 4.06744 16.6362 3.73541 17.0893 3.42412C17.7366 3.00908 18.3731 2.68742 18.9989 2.45914C19.7757 2.14786 20.5201 1.99222 21.2321 1.99222C22.2679 1.99222 23.2173 2.24125 24.0804 2.7393C24.965 3.23735 25.6555 3.9118 26.1518 4.76265C26.6696 5.59274 26.9286 6.49546 26.9286 7.47082C26.9286 7.92737 26.756 8.46693 26.4107 9.08949C26.1734 9.54604 25.8713 10.013 25.5045 10.4903L24.9866 11.0817L14.5 21.1673L3.68973 10.7704C3.45238 10.4799 3.22582 10.1894 3.01004 9.89883C2.72954 9.50454 2.51377 9.11025 2.36272 8.71595C2.16853 8.2594 2.07143 7.84436 2.07143 7.47082C2.07143 6.49546 2.31957 5.59274 2.81585 4.76265C3.33371 3.9118 4.02418 3.23735 4.88728 2.7393C5.77195 2.24125 6.73214 1.99222 7.76786 1.99222Z" fill="black"/>
</svg>
